# Blender v3.4.1 OBJ File: 'colher.blend'
# www.blender.org
o Plano
v -0.193150 0.909410 5.026736
v 0.180638 0.909410 5.026736
v -0.012495 0.236849 0.012774
v -0.000017 0.236849 0.012774
v -0.602919 0.223662 0.989117
v 0.590406 0.223662 0.989117
v 0.488009 0.236849 0.655062
v -0.500521 0.236849 0.655062
v -0.120118 0.452587 2.124691
v 0.107606 0.452587 2.124691
v -0.307481 0.833449 4.190681
v 0.294968 0.833449 4.190681
v 0.370681 0.239487 0.418319
v -0.383193 0.239487 0.418319
v 0.303034 0.239487 0.310677
v -0.315546 0.239487 0.310677
v 0.205178 0.234212 0.111613
v -0.217690 0.234212 0.111613
v 0.535308 0.233152 1.375804
v -0.547820 0.233152 1.375803
v 0.581778 0.240682 1.179082
v -0.594291 0.240682 1.179081
v -0.136860 0.240366 1.723087
v 0.124348 0.240366 1.723087
v -0.171383 0.394874 2.003555
v 0.158871 0.394874 2.003555
v 0.204726 0.728166 3.147497
v -0.217238 0.728166 3.147497
v 0.156904 0.630930 2.665196
v -0.169416 0.630930 2.665196
v 0.134535 0.545519 2.382415
v -0.147047 0.545519 2.382415
v 0.143989 0.339931 1.876296
v -0.156502 0.339931 1.876296
v 0.368914 0.236073 1.516415
v -0.381427 0.236073 1.516415
v -0.207467 0.239127 1.663420
v 0.194955 0.239127 1.663420
v 0.132666 0.289952 1.789032
v -0.145178 0.289952 1.789032
v 0.000608 0.909410 5.026736
v -0.006027 0.236849 0.012774
v 0.015658 0.014770 0.985319
v 0.011898 0.027957 0.651264
v -0.002074 0.452587 2.124691
v 0.004807 0.833449 4.190681
v 0.007588 0.030595 0.414521
v 0.005104 0.091363 0.291687
v 0.001510 0.165847 0.160987
v 0.013635 0.077433 1.413784
v 0.015342 0.031790 1.175283
v -0.001459 0.240366 1.723087
v -0.000191 0.394874 2.003555
v 0.001493 0.728166 3.147497
v -0.000263 0.630930 2.665196
v -0.001085 0.545519 2.382415
v -0.000738 0.339931 1.876296
v 0.007523 0.137324 1.561992
v 0.001134 0.239127 1.663420
v -0.001154 0.289952 1.789032
vt 0.524648 0.987636
vt 1.000000 1.000000
vt 0.511454 1.000000
vt 0.518364 0.785462
vt 1.000000 0.824409
vt 0.518364 0.824409
vt 1.000000 0.905640
vt 0.518364 0.905640
vt 0.518364 0.525258
vt 1.000000 0.583802
vt 0.518364 0.583802
vt 1.000000 0.000000
vt 0.518364 0.176477
vt 0.518364 0.000000
vt 1.000000 0.952820
vt 0.518364 0.952820
vt 1.000000 0.975272
vt 0.518364 0.975272
vt 1.171074 0.987636
vt 1.000000 0.699670
vt 0.518364 0.748375
vt 0.518364 0.699670
vt 1.000000 0.748375
vt 0.519916 0.622749
vt 1.000000 0.628083
vt 0.518364 0.628083
vt 0.524804 0.605943
vt 1.000000 0.372665
vt 0.518364 0.372665
vt 1.000000 0.476628
vt 0.518364 0.476628
vt 1.000000 0.525258
vt 1.099759 0.615487
vt 0.522028 0.615487
vt 1.000000 0.648751
vt 0.518364 0.648751
vt 1.042249 0.622749
vt -0.042249 0.622749
vt -0.099759 0.615487
vt 0.000000 0.628083
vt 0.000000 0.648751
vt 0.000000 0.699670
vt -0.175343 0.605943
vt 0.000000 0.525258
vt 0.000000 0.476628
vt 0.000000 0.372665
vt 0.000000 0.176477
vt 0.000000 0.583802
vt 0.000000 0.748375
vt 0.000000 0.785462
vt -0.171074 0.987636
vt 0.000000 0.975272
vt 0.000000 0.952820
vt 0.000000 0.905640
vt 0.000000 0.000000
vt 0.000000 0.824409
vt 0.000000 1.000000
vt 1.000000 0.785462
vt 1.000000 0.176477
vt 1.175343 0.605943
vn 0.0000 0.9019 0.4320
vn -0.3399 0.9367 -0.0845
vn -0.4017 0.9149 0.0406
vn 0.0000 0.9407 -0.3392
vn 0.0000 0.9959 -0.0905
vn -0.4987 0.8666 0.0187
vn -0.4272 0.8069 0.4079
vn -0.1677 0.8545 0.4916
vn -0.2880 0.8837 -0.3690
vn -0.2934 0.9386 -0.1817
vn 0.0000 0.7993 -0.6010
vn 0.0000 0.9028 -0.4301
vn 0.0000 0.9949 -0.1004
vn 0.0000 0.9803 -0.1976
vn 0.0000 0.9573 -0.2891
vn 0.0000 0.9181 -0.3964
vn 0.0000 0.7058 -0.7084
vn 0.0000 0.9998 -0.0208
vn 0.0000 0.8678 -0.4970
vn 0.2686 0.9025 -0.3366
vn 0.3237 0.9453 -0.0403
vn 0.2726 0.8996 -0.3413
vn 0.4212 0.8882 0.1835
vn 0.4540 0.8441 0.2853
vn 0.3715 0.9079 0.1942
vn 0.3178 0.9386 0.1345
vn 0.3220 0.9415 -0.0990
vn 0.1861 0.8928 0.4101
vn -0.1936 0.8840 0.4255
vn -0.3437 0.9338 -0.0993
vn -0.3390 0.9302 0.1406
vn -0.3946 0.8956 0.2055
vn -0.4780 0.8254 0.3004
vn -0.4465 0.8730 0.1964
vn -0.2907 0.8855 -0.3624
vn -0.3454 0.9374 -0.0457
vn -0.2879 0.8878 -0.3591
vn 0.2742 0.9449 -0.1789
vn 0.2689 0.8968 -0.3513
vn 0.1587 0.8597 0.4855
vn 0.4039 0.8232 0.3991
vn 0.4714 0.8819 0.0012
vn 0.3775 0.9254 0.0323
vn 0.3184 0.9442 -0.0841
s off
f 49/1/1 4/2/1 42/3/1
f 51/4/2 6/5/2 43/6/2
f 43/6/3 7/7/3 44/8/3
f 56/9/4 10/10/4 45/11/4
f 2/12/5 46/13/5 41/14/5
f 44/8/6 13/15/6 47/16/6
f 47/16/7 15/17/7 48/18/7
f 48/18/8 17/19/8 49/1/8
f 35/20/9 50/21/9 58/22/9
f 19/23/10 51/4/10 50/21/10
f 60/24/11 24/25/11 52/26/11
f 10/10/12 53/27/12 45/11/12
f 46/13/13 27/28/13 54/29/13
f 54/29/14 29/30/14 55/31/14
f 55/31/15 31/32/15 56/9/15
f 53/27/16 33/33/16 57/34/16
f 38/35/17 58/22/17 59/36/17
f 24/25/18 59/36/18 52/26/18
f 57/34/19 39/37/19 60/24/19
f 57/34/19 40/38/19 34/39/19
f 23/40/18 59/36/18 37/41/18
f 37/41/20 58/22/20 36/42/20
f 53/27/16 34/39/16 25/43/16
f 55/31/15 32/44/15 30/45/15
f 54/29/14 30/45/14 28/46/14
f 46/13/13 28/46/13 11/47/13
f 9/48/12 53/27/12 25/43/12
f 60/24/11 23/40/11 40/38/11
f 20/49/21 51/4/21 22/50/21
f 36/42/22 50/21/22 20/49/22
f 48/18/23 18/51/23 16/52/23
f 47/16/24 16/52/24 14/53/24
f 44/8/25 14/53/25 8/54/25
f 1/55/5 46/13/5 11/47/5
f 56/9/4 9/48/4 32/44/4
f 43/6/26 8/54/26 5/56/26
f 51/4/27 5/56/27 22/50/27
f 49/1/28 3/57/28 18/51/28
f 49/1/29 17/19/29 4/2/29
f 51/4/30 21/58/30 6/5/30
f 43/6/31 6/5/31 7/7/31
f 56/9/4 31/32/4 10/10/4
f 2/12/5 12/59/5 46/13/5
f 44/8/32 7/7/32 13/15/32
f 47/16/33 13/15/33 15/17/33
f 48/18/34 15/17/34 17/19/34
f 35/20/35 19/23/35 50/21/35
f 19/23/36 21/58/36 51/4/36
f 60/24/11 39/37/11 24/25/11
f 10/10/12 26/60/12 53/27/12
f 46/13/13 12/59/13 27/28/13
f 54/29/14 27/28/14 29/30/14
f 55/31/15 29/30/15 31/32/15
f 53/27/16 26/60/16 33/33/16
f 38/35/37 35/20/37 58/22/37
f 24/25/18 38/35/18 59/36/18
f 57/34/19 33/33/19 39/37/19
f 57/34/19 60/24/19 40/38/19
f 23/40/18 52/26/18 59/36/18
f 37/41/17 59/36/17 58/22/17
f 53/27/16 57/34/16 34/39/16
f 55/31/15 56/9/15 32/44/15
f 54/29/14 55/31/14 30/45/14
f 46/13/13 54/29/13 28/46/13
f 9/48/12 45/11/12 53/27/12
f 60/24/11 52/26/11 23/40/11
f 20/49/38 50/21/38 51/4/38
f 36/42/39 58/22/39 50/21/39
f 48/18/40 49/1/40 18/51/40
f 47/16/41 48/18/41 16/52/41
f 44/8/42 47/16/42 14/53/42
f 1/55/5 41/14/5 46/13/5
f 56/9/4 45/11/4 9/48/4
f 43/6/43 44/8/43 8/54/43
f 51/4/44 43/6/44 5/56/44
f 49/1/1 42/3/1 3/57/1
